PathFileType	4	(X/Y/Z)	9_coords_data.trc
DataRate	CameraRate	NumFrames	NumMarkers	Units	OrigDataRate	OrigDataStartFrame	OrigNumFrames
30.0	30.0	8	21	m	30.0	10	59
Frame#	Time	THUMB_TIP	THUMB_IP	THUMB_MCP	THUMB_CMC	INDEX_TIP	INDEX_DIP	INDEX_PIP	INDEX_MCP	MIDDLE_TIP	MIDDLE_DIP	MIDDLE_PIP	MIDDLE_MCP	RING_TIP	RING_DIP	RING_PIP	RING_MCP	PINKY_TIP	PINKY_DIP	PINKY_PIP	PINKY_MCP	WRIST
X1	Y1	Z1	X2	Y2	Z2	X3	Y3	Z3	X4	Y4	Z4	X5	Y5	Z5	X6	Y6	Z6	X7	Y7	Z7	X8	Y8	Z8	X9	Y9	Z9	X10	Y10	Z10	X11	Y11	Z11	X12	Y12	Z12	X13	Y13	Z13	X14	Y14	Z14	X15	Y15	Z15	X16	Y16	Z16	X17	Y17	Z17	X18	Y18	Z18	X19	Y19	Z19	X20	Y20	Z20	X21	Y21	Z21
9	0.3	-0.010395999908447265	-0.048476100921630856	1.0023499755859375	-0.03341550064086914	-0.04420449829101562	1.00652001953125	-0.050246799468994144	-0.02562809944152832	1.0091199951171874	-0.054164100646972656	0.001640249967575073	1.0178400268554688	-0.010791500091552735	-0.07235379791259766	0.909177001953125	-0.017530099868774414	-0.05846030044555664	0.9249320068359375	-0.025306299209594728	-0.04205899810791015	0.9391430053710937	-0.037412200927734375	-0.011838700294494629	0.9638909912109375	-0.01821890068054199	-0.034944999694824216	1.0025	-0.005806859970092774	-0.04219179916381836	0.9861500244140625	0.002671969890594482	-0.03561380004882812	0.9621190185546875	-0.01730579948425293	0.001395499944686889	0.9649459838867187	-0.01063889980316162	-0.028147600173950196	1.008280029296875	0.007660429954528808	-0.0301560001373291	0.994656982421875	0.02059269905090332	-0.017978900909423827	0.9758759765625	-0.002938519954681396	0.013454400062561035	0.9795020141601563	0.06487560272216797	-0.0033186900615692137	0.980114013671875	0.049494701385498045	0.0054244699478149415	0.9872979736328125	0.03351729965209961	0.012978300094604493	0.9928679809570312	0.005410210132598877	0.018611499786376953	1.0013499755859374	-0.06339130020141602	0.042118598937988284	1.03431005859375
10	0.3333333333333333	-0.010654500007629394	-0.04872829818725586	1.0021699829101562	-0.03355830001831055	-0.04437720108032227	1.0064299926757811	-0.05056579971313477	-0.025967100143432616	1.0088599853515625	-0.0551411018371582	0.001757120013236999	1.0175999755859375	-0.010945199966430664	-0.07266619873046876	0.9091199951171876	-0.01769499969482422	-0.058772300720214846	0.9248079833984375	-0.025499500274658204	-0.04235929870605469	0.9389959716796875	-0.03773910140991211	-0.012120599746704102	0.9638599853515625	-0.018503999710083006	-0.03509970092773437	1.002239990234375	-0.0063765101432800295	-0.04211819839477539	0.9864769897460938	0.002556619882583618	-0.03584299850463867	0.9621229858398438	-0.017590999603271484	0.001132650017738342	0.964822998046875	-0.010889300346374512	-0.02864780044555664	1.0085700073242188	0.007584819793701172	-0.03022520065307617	0.99418701171875	0.020354400634765624	-0.018172500610351562	0.9757520141601562	-0.0029835200309753424	0.013388999938964844	0.97956201171875	0.06465699768066406	-0.003592360019683838	0.980030029296875	0.049287300109863284	0.005214980125427246	0.9872559814453125	0.033360698699951175	0.01273490047454834	0.9925469970703125	0.005392960071563721	0.01831559944152832	1.0009500122070312	-0.06306990051269531	0.041663299560546874	1.03402001953125
11	0.36666666666666664	-0.010821599960327149	-0.04903960037231445	1.0016599731445313	-0.03373059844970703	-0.04464130020141602	1.005989990234375	-0.05047140121459961	-0.026273399353027343	1.0086199951171875	-0.05496879959106445	0.001488729953765869	1.0174500122070314	-0.011246899604797363	-0.0728864974975586	0.9088889770507812	-0.017976499557495116	-0.05894850158691406	0.9245440063476562	-0.025748500823974608	-0.042561901092529296	0.9387420043945313	-0.037800399780273435	-0.012175999641418456	0.9633690185546875	-0.018645200729370117	-0.035297100067138674	1.001719970703125	-0.0063479399681091305	-0.04244869995117188	0.9857890014648437	0.002330329895019531	-0.03601810073852539	0.961822021484375	-0.017763599395751953	0.0010311599969863889	0.96472998046875	-0.011107399940490722	-0.02880579948425293	1.008239990234375	0.007139130115509033	-0.030496999740600585	0.9943109741210937	0.02015769958496094	-0.01858169937133789	0.9756019897460938	-0.003258899927139282	0.013218899726867676	0.9792769775390625	0.06443479919433594	-0.004037230014801025	0.9796859741210937	0.04915380096435547	0.004820620059967041	0.9866950073242188	0.03321009826660156	0.012367600440979004	0.9923309936523438	0.005205349922180176	0.017972299575805664	1.0007999877929687	-0.06300859832763672	0.0413135986328125	1.0335799560546874
12	0.4	-0.010877599716186523	-0.04902280044555664	1.0017000122070312	-0.033857498168945316	-0.04480530166625977	1.005969970703125	-0.05067050170898438	-0.026224300384521483	1.0086099853515624	-0.0550974006652832	0.0013340799808502191	1.0174099731445312	-0.011288599967956543	-0.07325779724121094	0.9088060302734375	-0.018033599853515624	-0.05928990173339844	0.9244650268554687	-0.025794300079345703	-0.04288430023193359	0.9385369873046875	-0.03804650115966797	-0.012503700256347656	0.963593017578125	-0.01860300064086914	-0.03551589965820313	1.0019500122070313	-0.006672150135040284	-0.042572200775146486	0.9861069946289063	0.002179780006408691	-0.03629570007324219	0.9616069946289062	-0.017795999526977538	0.0006710590124130241	0.9643369750976563	-0.011274200439453125	-0.02903849983215332	1.0080499877929687	0.006946030139923095	-0.030652700424194337	0.9940330200195312	0.02009910011291504	-0.018802099227905274	0.9754749755859375	-0.003417959928512573	0.012806699752807618	0.9789210205078125	0.06432969665527344	-0.004375830173492432	0.9795460205078125	0.04904759979248047	0.004461559772491455	0.9867310180664063	0.033089298248291016	0.012101699829101562	0.9922520141601563	0.0051441102027893065	0.017693199157714844	1.000489990234375	-0.06326779937744141	0.04116780090332031	1.0335400390625
13	0.43333333333333335	-0.011176799774169922	-0.04927500152587891	1.00152001953125	-0.034141101837158204	-0.04520920181274414	1.0056099853515625	-0.051021598815917966	-0.02674799919128418	1.00822998046875	-0.0553494987487793	0.00128314995765686	1.0173900146484376	-0.011644399642944336	-0.07366699981689454	0.9085759887695313	-0.01830929946899414	-0.05971839904785156	0.9242020263671875	-0.026043500900268555	-0.043303298950195315	0.9382750244140625	-0.03809329986572266	-0.012937199592590333	0.9630029907226563	-0.01921649932861328	-0.035709800720214846	1.00152001953125	-0.0066617498397827145	-0.043065898895263674	0.9856610107421875	0.001958999991416931	-0.036825801849365236	0.9614190063476562	-0.017973899841308594	0.00033750700950622504	0.9641480102539063	-0.01151490020751953	-0.029079399108886718	1.00772998046875	0.00639886999130249	-0.031112499237060547	0.9940339965820313	0.019891599655151367	-0.019157400131225587	0.97506298828125	-0.003450119972229004	0.012496399879455566	0.9787059936523438	0.06410359954833984	-0.004982240200042724	0.9792540283203125	0.04889189910888672	0.003900399923324585	0.986260986328125	0.03299660110473633	0.011620100021362306	0.99177099609375	0.004917359828948974	0.01731159973144531	1.000489990234375	-0.06321310043334961	0.04096929931640625	1.0335699462890624
14	0.4666666666666667	-0.011396300315856934	-0.04986410140991211	1.001239990234375	-0.034279098510742186	-0.04554729843139648	1.0054099731445312	-0.05138669967651367	-0.026874000549316407	1.0079400024414062	-0.05563460159301758	0.000498878002166748	1.0169199829101563	-0.011909700393676758	-0.07410150146484375	0.9084030151367187	-0.018585800170898437	-0.060155601501464845	0.9239749755859376	-0.026277099609375	-0.043743698120117185	0.9380120239257812	-0.03833710098266602	-0.013258399963378907	0.9629089965820312	-0.01930229949951172	-0.03619839859008789	1.0010900268554688	-0.0070229401588439945	-0.043492500305175784	0.9850960083007813	0.00172704005241394	-0.03722370147705078	0.9611019897460937	-0.01815730094909668	-0.00016710400581359803	0.9638729858398437	-0.011908599853515625	-0.029831899642944335	1.007739990234375	0.006183090209960936	-0.03154190063476563	0.9939879760742187	0.019666000366210936	-0.01965239906311035	0.9747319946289063	-0.0035676500797271727	0.012028400421142577	0.9787009887695313	0.06391820144653321	-0.0055442900657653804	0.979010986328125	0.04870830154418945	0.003378580093383789	0.98606201171875	0.03282619857788086	0.011133399963378907	0.99139599609375	0.004854710102081299	0.01699570083618164	0.9999550170898438	-0.06356549835205078	0.04074700164794922	1.0333499755859374
15	0.5	-0.01151360034942627	-0.05000249862670898	1.0011300048828125	-0.03448410034179687	-0.0458025016784668	1.0053400268554689	-0.0513932991027832	-0.027272600173950196	1.0078900146484375	-0.05533000183105469	0.00048226800560951204	1.016780029296875	-0.012036700248718262	-0.07450379943847656	0.90831298828125	-0.01875699996948242	-0.060499500274658204	0.9239290161132813	-0.026507999420166014	-0.043977500915527344	0.9379860229492187	-0.03832149887084961	-0.013526200294494629	0.96252099609375	-0.019397199630737303	-0.0362500991821289	1.0006199951171875	-0.007391069889068603	-0.04360760116577148	0.98531201171875	0.001566409945487976	-0.037445999145507815	0.9610490112304687	-0.01821179962158203	-0.000404294997453689	0.9637410278320313	-0.012020400047302246	-0.029921499252319336	1.0071400146484375	0.006296130180358886	-0.031894899368286135	0.9935689697265625	0.01947249984741211	-0.019911100387573242	0.9746090087890625	-0.0036627299785614007	0.011853699684143066	0.9783729858398438	0.0637125015258789	-0.005820779800415039	0.978802001953125	0.048490001678466794	0.003036679983139038	0.9859190063476563	0.03256529998779297	0.010833900451660156	0.9912579956054688	0.004719160079956055	0.016527299880981446	0.9998079833984375	-0.06358259963989257	0.04050249862670898	1.0332099609375
16	0.5333333333333333	-0.01176140022277832	-0.050304298400878904	1.00102001953125	-0.034807998657226565	-0.04594290161132813	1.00522998046875	-0.051605899810791014	-0.027814300537109374	1.0074000244140624	-0.056163799285888674	0.00022240300476551	1.0163300170898437	-0.012317799568176269	-0.07487229919433594	0.90835302734375	-0.018974300384521484	-0.06085129928588867	0.9239130249023437	-0.026691499710083007	-0.04431610107421875	0.9379019775390625	-0.038657398223876954	-0.01379069995880127	0.9627050170898438	-0.01979159927368164	-0.036763198852539064	1.0008699951171875	-0.007533520221710205	-0.04386360168457031	0.9852509765625	0.001325309991836547	-0.037840900421142576	0.9610560302734374	-0.018248500823974608	-0.0006434000134468071	0.9633660278320313	-0.012067700386047363	-0.029767099380493163	1.0072999877929687	0.006166840076446533	-0.032152099609375	0.9928309936523437	0.019272300720214845	-0.020322700500488282	0.97456201171875	-0.003835030078887939	0.011662699699401856	0.978593017578125	0.06351240158081055	-0.006284279823303223	0.9788040161132813	0.04828070068359375	0.0026855199337005612	0.9857559814453125	0.03235440063476563	0.010542099952697753	0.9912080078125	0.004263720035552978	0.016506399154663086	0.9997860107421875	-0.06412830352783203	0.0403135986328125	1.0330899658203125
